<?xml version="1.0" encoding="UTF-8"?>
<svg id="Teamwork-1--Streamline-Brooklyn.svg" xmlns="http://www.w3.org/2000/svg" viewBox="0 0 379.8 274.46">
  <defs>
    <style>
      .cls-1 {
        fill: #404215;
      }

      .cls-2 {
        fill: #fbf5e7;
      }

      .cls-3 {
        fill: #535353;
      }
    </style>
  </defs>
  <path class="cls-2" d="M288.63,135.26c-3.6.24-7.21.16-10.8-.25-1.47.03-2.94-.1-4.39-.38-.49,1.74-1.03,3.48-1.6,5.23,4.6,1.86,10.24,1.27,16.11,1.52.12-2.05.35-4.09.68-6.11Z"/>
  <path class="cls-2" d="M335.2,127.66c-5.04-3.91-11.31-5.89-17.69-5.58,0,2.34-.1,4.71-.08,7.02,0,.44-.34.81-.78.82-.02,0-.04,0-.06,0-4.42-.22-8.36,3.6-12.33,5.53,0,2.15,0,4.32,0,6.49,3.27.09,6.55.18,9.82.28,4.59.14,9.4,1.06,13.97.39,8.58-1.25,16.26-7.53,7.15-14.94Z"/>
  <path class="cls-2" d="M67.22,168.56c.28-4.37,3.59-4.26,7.22-4.29,6.06-.06,12.28.23,18.33-.19,1.4-4.42,3.25-8.6,4.91-12.91,1.97-4.99,3.76-10.06,5.83-15,13.4,0,13.02-1.13,43.28-.02-3.97,7.4-7.68,15.04-11.42,22.58-1.78,3.51-3.17,7.4-5.29,10.74l-62.85-.91Z"/>
  <path class="cls-2" d="M203.43,191.84c-.09-10.53,6.09-18.18,14.05-24.42-.35,4.92.98,9.81,3.77,13.88,5.31-3.8,11.25-6.63,17.55-8.36,0,4.88.54,10.51,3.94,13.91.14.14-.86,5.39-1.2,8.1-6.31-.69-12.51-1.56-18.8-1.77-3.56-.11-7.06.28-10.62.25-2.82-.03-5.68-.62-8.5-.8l-.19-.79Z"/>
  <path class="cls-2" d="M113.59,18.51h33.6v14.88h-33.6v-14.88Z"/>
  <path class="cls-1" d="M295.11,46.4c-4.41-2.48-4.72-8.48-3.77-13.45.29-1.49.7-2.95,1.23-4.37.09-.38.47-.62.86-.52.37.09.61.46.53.83-.06,1.23-.24,3.24-.35,4.39-1.32,12.7,3.85,10.1,3.85,12.42v5.4c.06.42-.17.82-.55.99-1.22.4-2.46.73-3.71.98-.38.1-.77-.11-.89-.48-.28-1,.82-.92,3.14-1.99-.19-1.39-.3-2.79-.32-4.2h0Z"/>
  <path class="cls-1" d="M297.47,41.13c1.52,1.84,4.48.37,4.97-2.63.19-1.15-1.18-1.23-1.34-.51-.14.64-2.01,2.49-2.82,1.97-.61-.39-1.6.22-.82,1.17h0Z"/>
  <path class="cls-1" d="M295.78,30.55c-.75,2.09-.97,4.34-.62,6.54.02.41.36.73.77.71.38-.02.69-.31.71-.69.34-2.07.52-4.17.54-6.26-.03-1.02-.99-1.16-1.4-.29Z"/>
  <path class="cls-1" d="M301.95,30.86c.65.63.66,1.67.02,2.31-.49.5-1.24.63-1.87.33-.64-.64-.65-1.67,0-2.32.49-.49,1.23-.62,1.86-.33Z"/>
  <path class="cls-2" d="M293.85,65.84c1.16,1.01,2.46,1.86,3.86,2.51,1.56.87,3.31,1.36,5.09,1.43,1.93-.32,3.67-1.38,4.85-2.94,3.14-3.46,4.6-8.82,5.88-13.2-1.36-.67-2.75-1.26-4.17-1.77-2.99,2.63-6.19,4.99-9.31,7.46-2.05,1.79-4.28,3.37-6.66,4.69-1.73-3.48-3.06-7.14-3.94-10.93-.86.14-1.69.35-2.58.49-1.55,3.76-4.8,10.01-3.91,14.07.86,3.59,5.17,1.74,7.14.35,1.2-.86,2.4-1.74,3.55-2.63l.2.46Z"/>
  <path class="cls-1" d="M233.81,129.04c.4-1.32.24-1.15,1.08-3.54.1-.38.48-.61.85-.51.38.1.61.48.51.85,0,.01,0,.03-.01.04-.17.9-.36,2.66-.54,4.02-.11.6-.6.65-1.65,1.79-1.45,1.43-2.66,3.07-3.6,4.88.52.44,1.08.84,1.66,1.2,1.18.75.12,1.63-.12,4.68-.28,1.76.38,3.54,1.74,4.69.76.69,1.77,1.03,2.79.92.62-.08,1.2.36,1.28.98.01.1.01.21,0,.31-.29,1.8-.56,3.76-1.12,6.29-.08.45-.47.78-.92.79-1.18-.06-3.03-.21-4.82-.17-.4.02-.74-.27-.78-.66-.03-.4.26-.75.66-.78,0,0,0,0,0,0,1.11-.12,2.46-.2,4.08-.25l.48-4.22c-1.15-.17-2.24-.65-3.14-1.38-2.97-2.45-3.07-5.87-2.16-9.67-.32-.22-.62-.45-.94-.68-.81-.74-1.75-1.37-1.26-2.36,1.33-2.88,3.38-5.36,5.94-7.23h0Z"/>
  <path class="cls-1" d="M234.82,141.35c.39,2.33,3.84,3.6,5.83-.43.21-.35.1-.8-.25-1.01-.31-.19-.72-.12-.95.16-1.84,2.05-3.25.83-3.35.65-.38-.63-1.48-.56-1.28.63Z"/>
  <path class="cls-3" d="M246.89,155.84c1.36.22,6.77.18,6.77-1.2,0-1-2.5-1.1-3.49-1.14-.25,0-2.76-.03-3.2.03-2.34.37-2.66,1.67-.08,2.31Z"/>
  <path class="cls-2" d="M257.48,155.02c.2-.01,3-.23,3.25-.28,1.19-.24,1.78-.34,1.85-.94.06-.77-1.29-1.09-2.05-1.26-1.24-.16-2.5-.08-3.71.23-.44.16-1.52.89-1.35,1.55.19.61,1.37.69,2.02.69h0Z"/>
  <path class="cls-1" d="M253.62,159.3c-.06-.6-.12-1.2-.2-1.8-.07-.54-.49-.96-1.03-1.03-1.93-.2-3.78-.15-5.34-.21-.53-.03-1.01.29-1.19.78-.86,2.28-1.49,4.87-1.89,6.09-.18.62.18,1.27.8,1.45.1.03.2.04.31.05,2.02-.05,5.6-.23,7.6-.17.35.03.67-.18.79-.51.22-1.54.28-3.1.15-4.65Z"/>
  <path class="cls-1" d="M263.23,162.29c-.02-2-.14-4-.38-5.99-.07-.62-.59-1.09-1.22-1.09-2.38.07-3.22.29-5.09.38-.59.04-1.07.48-1.16,1.06-.22,2.14-.3,4.3-.23,6.45,0,.35.15.69.43.91.86.6,1.08-.08,3.99-.42.84-.11,1.69-.15,2.54-.11.23.18.55.19.8.03.38-.08.63-.46.55-.84-.03-.15-.11-.28-.22-.39h0Z"/>
  <path class="cls-1" d="M239.18,130.53c.62.14.91,1.2.63,2.36s-.98,1.98-1.62,1.83-.91-1.2-.63-2.35.98-1.97,1.62-1.83Z"/>
  <path class="cls-1" d="M170.69,108.39c1.78,8.65,6.46,15.68,9.77,22.27,6.17,11.91,15.22,31.68,27.83,39.55.8.53,1.56-.71.78-1.22-11.2-7.93-21.29-29.43-26.46-39.44-3.72-7.03-8.58-15.12-10.53-21.5-.09-.39-.48-.62-.87-.53s-.62.48-.53.87h0Z"/>
  <path class="cls-1" d="M178.02,103.34c2.88,2.58,4.52,4.79,7.03,7.37,14.65,14.19,27.42,33.65,39.06,44.52.76.65,1.73-.4,1.02-1.03-9.24-9.5-22-29.36-38.52-45.14-2.43-2.43-5-4.7-7.69-6.82-.3-.25-.75-.21-1,.09s-.21.75.09,1c0,0,.02.01.02.02h0Z"/>
  <path class="cls-1" d="M173.2,108.71c.31.82,3.51,5.37,4.59,4.66.7-.45-.26-2.36-.42-2.65-.66-1.18-1.42-2.3-2.28-3.34-1.68-1.65-2.77-1.01-1.89,1.32h0Z"/>
  <path class="cls-1" d="M175.85,106.58c.31.5.66.96,1.06,1.39.5.71,1.07,1.38,1.69,1.99,1,.89,1.85,1.7,2.43,1.2.72-.61-.71-2.68-1.28-3.46-.65-.89-1.35-1.75-2.11-2.55-.35-.29-1.57-1.18-2.09-.74-.49.38-.17,1.18.29,2.18h0Z"/>
  <path class="cls-1" d="M309.89,32.94c1.45-3.01,1.08-6.58-.95-9.23-1.18-1.28-2.57-2.34-4.12-3.12-.71-2.24-1.67-4.4-2.86-6.43-4.8-8.64-13.52-7.05-15.44-.69-1.35,6.23,2.07,12.52,8.03,14.77,2.52.62,5.16.61,7.68-.03.59,2.48,2.32,4.54,4.66,5.55,1,.31.51.02,1.43.52.52.28.95.7,1.23,1.22.38.72.18,1.6-.46,2.09-.83.66-1.86,1.01-2.92,1-.51.04-.95.39-1.09.88-.48,1.87-1.41,3.59-2.72,5-.37.22-.45.92-.45,1.34,0,1.69.12,3.79.25,5.09.02.39.29.72.66.83.97.34,1.95.62,2.95.83.39.1.78-.14.88-.52.1-.39-.14-.78-.52-.88-.72-.26-1.41-.56-2.09-.91.26-4.8.23-4.25.23-4.4,1.29-1.42,2.28-3.1,2.89-4.92,1.38-.14,2.67-.73,3.68-1.68,1.58-1.33,1.78-3.68.45-5.26-.38-.45-.86-.8-1.4-1.03ZM298.14,15.58c-.58-.66-1.26-1.23-2.02-1.68-1.01-.87-2.52-.82-3.48.11-.59.47-.77,1.33-1.23,2.69.03.4-.27.74-.66.77-.4.03-.74-.27-.77-.66-.47-1.17-.38-2.48.23-3.58.99-1.72,2.94-2.63,4.9-2.29,2,.48,3.61,1.95,4.26,3.89.45.86-.79,1.56-1.23.74h0ZM299.87,19.22c-.51-.51-.83-1.18-.89-1.89-.22-.84.59-1.45,1.28-.62.44.56.76,1.2.94,1.89.25.72-.45,1.5-1.32.62Z"/>
  <path class="cls-1" d="M120.51,72.9c-4.47-7.44-15.68-4.24-23.29-.09-7.26,3.89-9.05,6.58-12.74,11.87-.23.33-.68.41-1.02.18-.32-.23-.39-.67-.17-.98,3.05-4.77,4.77-8.49,12.8-13.05,9.38-5.33,22.2-8,27.02,1.79,5.65-.12,13.31,2.9,18.35,5.6,8.52,4.95,16.07,11.42,22.28,19.07.25.31.21.77-.11,1.02-.29.24-.71.21-.97-.05-6.31-7.26-13.83-13.37-22.24-18.05-4.53-2.35-11.42-5.07-16.5-5.2.81,4.94-4.81,9.77-8.45,8.54-1.99-.68-3.06-2.84-2.38-4.84.05-.15.11-.3.18-.44,1.48-2.79,4.14-4.76,7.23-5.36h0ZM121.54,75.15c-4.46.72-6.6,4.16-6.17,5.17,1.13,2.95,7-1.32,6.17-5.17Z"/>
  <path class="cls-1" d="M64.56,105.99c.68-.65.09-1.6-.78-1.2-1.93.89-2.2.29-3.2-.66-.29-.28-.61-.49-.95-.31-1.21.65,1.22,5.7,4.94,2.17Z"/>
  <path class="cls-1" d="M83.51,150.12c.82,5.28-.5,8.57.77,8.83,1.19.23,1.71-3.96,1.77-4.82.27-3.54-.42-7.08-1.99-10.27-.29-.57-1.79-2.88-2.55-2.34-1.03.58,1.52,4.76,2,8.59Z"/>
  <path class="cls-1" d="M81.2,159.55c-4.28-3.56-9.51-2.57-14.98-1.55-5.37,1.29-10.99,1.17-16.3-.37.25-2.58.3-5.17.15-7.75-.4-2.8-1.82-3.06-2.26,0-.12,2.4-.07,4.81.14,7.21-6.17-1.72-13.64-3.91-19.14-.55-2.11,1.35-3.76,3.32-4.71,5.65-.44,1.07-.83,2.15-1.15,3.26-.12.37.08.77.45.89.36.13.76-.05.89-.41,0,0,0-.01,0-.02.98-3.05,2.98-5.66,5.68-7.39,6.38-3.56,16.13.94,22.86,2.28,2.63.42,5.3.52,7.96.31,4.8-.2,9.74-2.3,14.17-2.17,4.85.16,5.38,2.73,6.37,1.63.23-.32.18-.76-.12-1.02Z"/>
  <path class="cls-1" d="M71.73,162.57c1.95-.42,3.98-.37,5.91.14.36.17.79.03.96-.33.17-.36.03-.79-.33-.96-2.09-1.34-4.75-1.42-6.91-.2-.93.57-.39,1.54.37,1.35Z"/>
  <path class="cls-1" d="M60.47,95.79c.69-.49,1.82-.09,2.52.89s.69,2.18-.02,2.68-1.82.09-2.52-.89c-.71-.75-.7-1.93.02-2.68Z"/>
  <path class="cls-1" d="M160.35,210.83c-.36-6.14-.6-22.95-1.27-29.28.27-.21.43-.53.44-.87v-6.44h-.05c.02-2.39-1.4-4.55-3.6-5.48-1.37-.61-.28-.47-24.18-.55,1.5-2.63,2.91-6.04,4.45-9.09,2.31-4.48,10.08-19.48,11.71-22.42.29-.58.05-1.29-.54-1.57-.14-.07-.29-.11-.45-.12-32.76-1.26-28.88-.03-43.34-.03-.49,0-.93.28-1.12.72-.62,1.49-10,25.73-10.51,27.26-17.38,1.05-24.74-1.67-25.32,5.06-16.17-.05-31.52-.09-42.87-.11-2.64-3.83-3.77-8.51-3.16-13.12.77-6.37,3.17-12.42,6.99-17.58,1.61-2.08,3.33-4.06,5.17-5.94,9.45-1.94,16.48,8.97,41.43,2.89,3.89-.85,7.65-2.25,11.16-4.14,4.77,3.93,6.91,9.55,9.28,15.37.14.36.54.55.91.42.38-.14.57-.55.43-.93,0,0,0,0,0,0-2.3-5.88-4.22-12.5-9.88-16.9-.35-.27-.82-.3-1.2-.08-.44.26-.88.5-1.34.73-.3-.44-.63-.86-.98-1.26-1.5-1.48-3.27-2.66-5.22-3.46-.44-.17-2.21-.52-2.51.15-.22.73,1.45,1.86,1.66,1.97,1.54.85,3.02,1.83,4.4,2.93.15.12.63.48.73.54-1.86.74-3.76,1.36-5.7,1.86,0-.92,0-1.57-.03-2.2-.16-2.35-.93-4.62-2.22-6.59-.37-.53-2-1.74-2.58-1.12-.67.71.86,2.26,1.66,4.51.59,1.92,1.03,3.88,1.32,5.86-6.68,1.76-13.64,2.21-20.49,1.31-.05-.33-.49-2.7-.56-2.95,1.49.09,2.98-.01,4.45-.3.72-.11.63-1.27.54-1.63-.59-1.84-1.01-3.74-1.23-5.66-.31-2.41-1.19-14.6-1.19-18.33.09-5.81,1.39-12.8,6.2-15.45,4.46,5.98,5.04,5.55,6.53,10.92-.42.49-.88.95-1.39,1.35-.91.74-.14,1.4-.35,4.38-.53,3.3-1.43,5.72-4.72,6.47-.36.08-.74.05-1.08-.08-.83-.26-2.4-.65-2.79.14-.25.51.06,1.22.82,1.65.68.37,1.42.62,2.18.74.06,2.43.12,3.22.38,6.63,0,.42.28.8.69.89,2.31.53,4.6,1.19,6.84,1.98.66.18,1.33-.21,1.51-.86.02-.09.04-.17.04-.26.02-3.29.2-8.4-.12-12.87-.74-8.61-1.34-7.4-.8-7.98,1.43-1.49,1.48-1.52.87-3.4.13-.16.22-.36.25-.57,1-6.41-2.14-12.76-7.83-15.87-5.58-3-12.6,1.6-17.45,5.68-1.67,1.43-1.02,3.67-.97,5.22-2.37,2.22-3.81,5.27-4.02,8.51-.8,5.56-1.52,17.61-.04,22.65-1.18.75-2.27,1.64-3.23,2.66-.41.57-.75,1.19-1.02,1.85-1.41-.08-2.83.05-4.2.37-.27.1-.53.26-.74.46-15.16,15.11-14.93,31.36-9,38.45-17.28-.04-16.64-.2-18.15.46-1.56.65-2.81,1.89-3.46,3.45-.63,1.49-.48,2.08-.48,8.86,0,.6.44.91,1.02.97-.66,15.17-.23,22.06-.23,37.67.09,8.86-.51,17.48.06,26.47.35,5.78.07,15.77,1.54,19.02.83,2,2.8,2.41,3.8.54,1.1-2.06,1.65-8.28,1.83-10.62.32-3.29,4.56-63.11,5.43-73.07h21.83c.44,3.48,1.43,6.88,2.95,10.04,1.02,2.7,2.89,4.99,5.33,6.54-3.09.9-4.87,4.14-3.96,7.23.73,2.5,3.03,4.21,5.64,4.2,1.63,0,6.89-.06,12.4-.12-1.2,4.77-5.23,20.94-7.64,30.63-1.13.39-.98,1.04-.34,1.35-.65,2.63-5.12,22.36-5.12,22.36-.08.39.17.77.56.85.36.08.72-.14.83-.49,2.83-9.89,2.08-7.18,5.94-22.28,5.5.27,11.02.18,16.51-.26,3.75,11.75,7.2,22.57,7.2,22.57.11.37.5.59.88.48.39-.1.61-.5.51-.88,0,0,0,0,0,0l-16.27-54.35c5.3-.06,10.25-.12,11.82-.15,2.44-.05,4.55-1.7,5.18-4.05.8,11.2,2.19,22.36,4.16,33.42-.67,1.1-2.05,17.19-2.07,17.4-.2,2.57-.7,5.56,1.55,7.19,2.07,1.55,4.16.59,5.68-1.49,2.02-3.4,3.34-7.17,3.89-11.08,1.04-6.27.27-8.28,1.04-2.16.27,2.14.66,4.26,1.17,6.36.13.49.55.85,1.06.9-.26,1.42-.33,2.87-.22,4.31-.13,2.45,1.64,4.58,4.07,4.9,1.73.25,2.6-.08,9.23-.92,2.12-.25,5.24-.78,7.56-1.22.4-.04.68-.4.64-.79-.04-.4-.4-.68-.79-.64h0c-1.37.08-3.58.05-6.6.26-8.63.6-10.87,2.36-11.65-1.22-.29-1.17-.38-2.81-.69-4.76.55-.04,3.62-.4,4.85-.5,2.77,2.7,6.58,4.05,10.43,3.67.96-.09,2.14-.13,2.05-.92,0-.74-.76-.73-1.97-.91-3-.33-5.89-1.31-8.47-2.86-.76-.55-.2.74.26-5.77.96-13.82-.36-38.94-.45-43.66-.16-7.64.32-14.49-7.73-16.54.24-2.4-.53-4.8-2.14-6.6h54.75c1.28,6.24,4.74,20.1,4.95,20.87.85,3.34,1.64,5.63,2.82,9.06.11.39.51.61.9.5s.61-.51.5-.9c-1.12-4.83-4.53-23.02-7.49-29.53h8.46c-.6,9.8-.11,19.64,1.46,29.33.02.4.36.7.76.68s.7-.36.68-.76c0-.02,0-.05,0-.07h0ZM68.03,121.07l-3.86-1.28c0-2.81-.03-3.85.12-5.79,1.02-.6,1.89-1.44,2.52-2.43.58-.7,1.04-1.5,1.35-2.36.03,1.17.01,1.73-.14,11.86ZM40.23,127.11c.33-.25.68-.5,1-.75.74,1.41,1.88,2.57,3.29,3.33.4.22.9.16,1.25-.14.71-.62.18-1.47.03-2.05,1.34,1.12,2.93,1.91,4.63,2.3.06.32.54,2.65.58,2.85-5.07-1.15-10-3.2-13.01-3.78.78-.54,1.52-1.13,2.23-1.76ZM93.94,193.62c0-.4.32-.73.72-.73s.73.32.73.72c.72,12.18.56,24.4-.48,36.57-.11,1.36-.26,2.69-.38,4.05-.02.41-.37.72-.78.69-.4-.02-.71-.37-.7-.77.72-40.79.18-29.8.88-40.52h0ZM92.86,165.25c.48-.04.89-.36,1.05-.82,1.35-4.37,3.53-9.3,4.89-12.82,1.6-3.99,4.14-11.11,5.53-14.22,13.68-.2,14.86-1.01,40.61-.15-4.33,8.29-5.23,10.42-10.39,21.1-1.47,3.04-2.77,6.64-4.56,9.87-16.77-.05-40.06-.12-62-.18.9-5.07,7.26-1.66,24.86-2.77h0ZM4.43,263.27c-.96-3.31-.85-12.92-1.15-17.64-.53-8.88-.03-17.87-.08-26.33-.05-5.11-.73-35.33-.71-37.64h9.52c-1.95,19.36-6.41,77.75-7.57,81.61ZM67.86,240.04c-3.43-.35-6.89-.47-10.34-.36-2.05,0-3.5-.02-5.08.09,2.85-11.13,6.2-24.3,6.82-26.8.78,2.55,4.76,15.05,8.59,27.07h0ZM72.54,207.57c-3.49-.06-23.78-.28-27.29-.31-1.89,0-3.43-1.53-3.43-3.42,0-1.89,1.53-3.43,3.42-3.43h.01l3.29-.02c7.4,2.07,18.64,1.34,26.27.45,1.68,1.16,2.09,3.47.93,5.14-.72,1.04-1.93,1.64-3.2,1.58h0ZM78.69,184.44c-2.05,5.75-.84,4.88-.97,11-.03,1.2-.01,2.12-.78,2.17-.72.04-.8-.81-1.03-2-.71-2.57-.94-5.24-.69-7.89-2.83.35-5.69.5-8.54.46-.93-.07-2.59-.28-2.59-1.05-.07-.65.56-.86,2.51-1.25,3.03-.24,6.08-.29,9.12-.16.22-.6.51-1.16.88-1.68.5-.63,1.55-1.89,2.2-1.42.51.37.2,1.04-.11,1.82ZM84.71,260.84c-.54.62-1.16,1.09-1.89.54-1.8-1.36.06-5.5.37-21.6,2.55.1,4.42.08,7.05.26-.49,5.2-2.01,16.96-5.53,20.8ZM158.01,174.24v5.66c-4.36-.03-148.66-.45-155.57-.45,0-5.33-.11-5.73.31-6.73.63-1.47,2.07-2.43,3.66-2.45,15.8,0,141.04-.34,147.18-.4,2.44-.03,4.44,1.92,4.48,4.36h-.05Z"/>
  <path class="cls-1" d="M148.32,34.81c-.11-6.53-.6-11.56-.23-16.19.08-.63-.36-1.21-.99-1.29-.08-.01-.16-.01-.24,0-6.6.2-29.69.66-32.61.83-.63.03-1.13.51-1.18,1.14-.96,12.23,1.16,30.31,2.17,41.09.03.5.4.91.89.99,10.36.7,20.76.5,31.09-.6.39-.03.68-.38.65-.78-.01-.16-.08-.31-.19-.42.23-10.88.65-12.8.65-24.76h0ZM115.42,20.51c2.71-.12,23.84-.57,30.2-.75-.22,4.38.18,8.5.35,12.91-1.97-.07-7.4-.3-8.56-.32-1.74-.03-16.22-.09-17.8-.03-1.27.07-3,.23-4.26.38-.13-4.08-.13-8.16.07-12.19ZM117.3,59.34c-.61-8.17-1.55-17.04-1.88-25.13,2.84.36,5.7.52,8.56.47,7.35.22,14.71.04,22.04-.56,0,.24.18,22.9.25,25.27-9.65.63-19.32.61-28.96-.06Z"/>
  <path class="cls-1" d="M123.58,40.66c1.52.02,6.71-.05,9.08-.31,3.03-.4,3.59-.46,3.59-1.23-.1-.85-1-.75-3.2-.88-3.32-.15-6.64-.11-9.96.14-.39.03-2.97.42-2.86,1.28.07.88,1.82.93,3.35,1h0Z"/>
  <path class="cls-1" d="M122.08,47.17c.92.03,1.84.02,2.76-.05,1.04-.01,2.08-.17,3.08-.46.86-.24,1.51-.37,1.43-1.05,0-.67-.69-.72-2.09-.86-1.77-.1-3.54-.06-5.29.14-.2.06-1.89.53-1.8,1.23,0,.7,1.71,1.02,1.92,1.05h0Z"/>
  <path class="cls-1" d="M168.15,71.57c-2.41.24-5.14.66-7.23,1.08-.59.12-1.17-.27-1.29-.86-.01-.07-.02-.13-.02-.2-.18-3.51-.54-6.2-.54-10.05,0-.65.51-1.18,1.15-1.2l8.91-.59c.64-.06,1.2.42,1.26,1.06,0,.1,0,.2-.01.3-.26,2.03-.41,4.08-.46,6.13-.08.89-.15,1.79-.2,2.68l.42.02c.39-.02.73.28.75.68.02.39-.28.73-.68.75l-.62.06v.34c.03.39-.27.73-.66.76-.39.03-.73-.27-.76-.66,0-.02,0-.05,0-.07l-.03-.22ZM167.87,62.24c-3.7.25-.99.14-6.37.48,0,2.28.18,3.89.29,7.57,2.05-.24,4.12-.36,6.19-.35-.34-2.55-.37-5.14-.11-7.7h0Z"/>
  <path class="cls-2" d="M198.6,80.95c.38-.05.72-.11,1.12-.15.39-.06.76.2.83.6.06.38-.19.74-.57.82-4.78,1.14-10.82,1.96-13.7,2.55-.63.11-1.23-.32-1.34-.96-.03-.17-.02-.35.03-.52,1.18-4.73,3.22-9.52,4.85-14.44.22-.64.91-.98,1.55-.76.25.09.47.26.62.48,2.62,3.88,4.84,8.03,6.6,12.37h0ZM191.26,72.01c-.37,1.05-3.04,8.42-3.51,10.16,2.31-.37,6.36-.71,9.23-1.02l-5.73-9.14Z"/>
  <path class="cls-2" d="M105.63,109.88c-2.95-.17-6.6.03-10.85-.28-.64-.03-1.13-.58-1.1-1.22,0-.18.06-.35.14-.5,1.98-3.87,4.23-7.6,6.71-11.17.4-.54,1.16-.66,1.7-.27.16.12.29.27.38.45,6.13,13.25,2.78,11.14,4.94,11.65.4.04.68.4.64.79-.04.4-.4.68-.79.64l-.59-.05c-.23.32-.68.39-1,.15-.07-.05-.13-.12-.18-.2ZM101.31,99.83c-1.11,1.71-2.43,3.73-4.56,7.59,1.52.08,6.58.46,8.19.72-.45-1.16-3.29-7.56-3.63-8.31Z"/>
  <path class="cls-1" d="M246.48,195.2c-1.3-.37-2.6-.71-3.89-1,.63-3.67.65-4.92,1.14-7.51.04-.23,0-.46-.11-.66-2.57-3.92-3.87-8.54-3.72-13.22.54-.54,1.04-1.13,1.48-1.75.42-.65,2.3-3.41,2.31-3.43.4-.73,1.17-2.18.49-2.66-.58-.48-1.93.75-2.11.96-.67.79-1.28,1.63-1.82,2.52-.71.93-1.26,1.98-1.63,3.09-5.6.7-11.96,4.52-16.78,7.4-2.16-3.64-3.18-7.84-2.91-12.06,2.69-3.79,5.61-7.41,8.74-10.84.56-.92,1.41-1.43.88-2.11-.49-.55-1.16-.05-2.2.71-3.66,3.02-6.71,6.72-8.98,10.9-.16.05-.31.13-.44.24-5.93,5.13-10.7,8.37-13.4,16.7-.84,3.08-1.15,6.28-.93,9.46-11.29-1.12-22.64-1.47-33.97-1.04-.68.06-1.18.67-1.12,1.35,0,.07.02.15.04.22,1.19,3.64,4.96,15,6.34,19.05-9.6-.48-16.8,4.66-21.83,12.85-2.08,3.34-3.55,7.02-4.32,10.88-.11.37.1.76.46.89.37.12.77-.09.89-.46,5.38-12.69,11.74-22.2,25.76-22.48.89.4,3.36-1.25,11.22-.14,14.03,1.92,23.77,8.84,34.44,5.56.23.31.67.37.98.14.19-.14.29-.37.28-.6.17-.06.32-.11.46-.17.37-.16.55-.58.4-.95-.16-.36-.57-.53-.94-.4l-.26.11c-1.76-7.86-3.96-15.62-6.57-23.24-.15-.44-.56-.75-1.03-.77-3.25-.2-6.5-.43-9.75-.68-.04-3.03.45-6.05,1.44-8.91,2.27-6.2,5.91-9.77,11-13.88.06,4.31,1.45,8.51,3.99,12,.36.5,1.04.65,1.57.32,4.89-2.95,9.83-6.12,15.48-7.51.24,4.55,1.72,8.95,4.29,12.71-.32,2.48-.5,5.29-.75,7.11-6.47-1.1-13-1.75-19.56-1.95-1.82.02-3.64.25-5.42.66-.39.04-.67.38-.65.77.06.39.42.67.82.63,3.7,0,22.6,1.54,29.87,2.6.38.08.76-.16.84-.54,0,0,0-.01,0-.02.05-.38-.2-.74-.57-.82h0Z"/>
  <path class="cls-1" d="M60.58,93.91c1.18-.19,2.37.24,3.17,1.12.25.3.69.35,1,.11,1.12-.93-2.05-4.3-4.59-2.59-.91.62-.47,1.42.42,1.35Z"/>
  <path class="cls-1" d="M100.69,29.24c1.5.02,2.99-.06,4.48-.25.67-.11,2.55-.46,2.46-1.26,0-.77-1.2-.88-2.58-.98-1.5-.03-2.99.03-4.48.17-.36.07-1.85.53-1.85,1.23s1.55,1.06,1.97,1.09Z"/>
  <path class="cls-1" d="M100.81,8.1c.39.41,2.38,1.91,2.74,2.19,4.16,3.12,5.14.88,1.46-1.88-.51-.42-2.17-1.78-2.77-2.14-.45-.27-1.82-.84-2.25-.28s.57,1.87.81,2.11Z"/>
  <path class="cls-1" d="M121.08,1.71c.02,1.2.14,2.39.34,3.57.95,3.16,2.28,2.46,2.28-.41-.03-1.12-.14-2.24-.31-3.36,0-.2-.64-1.59-1.34-1.51-.6.07-.94,1.51-.97,1.71Z"/>
  <path class="cls-1" d="M169.6,31.09c.89-.44,1.81-.82,2.75-1.12,6.28-2.32,13.63-1.17,15.85-9.14.12-.37-.06-.77-.42-.92-1.13-.4-.68,1.18-3.06,3.29-3.56,3.37-10.08,2.62-13.7,4.89-.87.5-1.66,1.14-2.32,1.89-.3.25-.34.7-.09,1,.25.29.68.34.98.1Z"/>
  <path class="cls-1" d="M172.92,40.65c.83-.42,1.69-.76,2.59-1.02,6.4-2.04,12.47-.24,16.19-6.37.21-.33.14-.77-.17-1.02-1.01-.69-.83.87-3.97,2.35-5.07,2.46-11.58.4-15.53,4.94-.29.25-.34.69-.11,1,.25.31.69.35,1,.11,0,0,0,0,0,0Z"/>
  <path class="cls-2" d="M69.66,56.44c7.75,1.06,10.29,9.8,18.56,5,.35-.17.5-.6.33-.95-.16-.33-.55-.49-.9-.35-8.23,2.99-10.37-6.89-18.04-5.09-.39-.04-.74.23-.78.62-.04.39.23.74.62.78.07,0,.14,0,.21,0Z"/>
  <path class="cls-2" d="M72.98,48.93c.82.19,1.62.47,2.39.83,5.08,1.99,8.31,8.87,15.14,5.86.39-.11.61-.51.51-.89-.11-.39-.51-.61-.89-.51-.03,0-.06.02-.09.03-6.96,1.64-9.94-8.1-17.1-6.76-.39.03-.69.37-.66.77.03.37.33.66.7.66Z"/>
  <path class="cls-2" d="M239.18,233.64c-3.72-1.07-7.55-1.68-11.42-1.8-10.36-.74-20.16.6-28.63,7.02-4.16-.99-8.07-2.84-11.47-5.43-10.68,5.16-26.5,15.22-29.98,18.95-1.01,1.45-1.56,3.17-1.59,4.94-1.39,9.45,7.37,13.85,15.47,14.71,33.82,3.62,68.39-1.41,111.66-4.46,9.93-.69,15.91-15.54,18.53-23.61,5.14-15.97,7.54-38.61-6.91-51.05-3.55-2.74-7.58-4.81-11.88-6.09-4.7-1.86-9.83-2.34-14.79-1.37-.54.14-1.11.23-1.66.43.4,8.17-1.31,18.82-8.02,24.4-2.65,1.97-5.76,3.23-9.03,3.66-.9,3.76-2.44,7.34-4.57,10.57-1.65,3.05-3.35,6.69-6.17,8.85l.46.29Z"/>
  <path class="cls-1" d="M286.13,193.99c4.83,29.52-19.54,45.52-48.19,53.16-22.37,5.99-39.84,5.41-46.96,5.85-10.55.63-22.52,2.72-26.4,12.6-.16.26.32.49.43.18,3.86-9.6,15.7-11.5,26.01-12.08,7.49-.41,24.96.15,47.11-5.79,29.29-7.79,53.74-24.16,48.45-54-.12-.36-.55-.17-.46.08Z"/>
  <path class="cls-1" d="M264.13,130.87c1.71-2.72.9-6.31-1.82-8.02-.4-.25-.83-.45-1.28-.6-.05-2.02-1.46-3.75-3.43-4.2-.74-3.96-6.7-5.91-11.1-1.77-3.66-2.6-10.98-.49-13,6.88-.16.63.22,1.28.85,1.44.21.05.43.05.64-.01.51-.15,1-.37,1.46-.65,1.01,1.55,2.5,2.72,4.25,3.32-.06.22-.12.44-.17.65-1.09-.55-2.38-.5-3.42.14-.97.63-.35,1.57.42,1.35.51-.14.18-.83,2.8.48,0,1.77.62,3.47,1.75,4.84.23.24.47.46.74.66-1.85,2.4-1.9,5.73-.11,8.17-1.77,2.92-.83,6.73,2.09,8.5.68.41,1.43.69,2.22.81,1.56.27,2.64-.4,3.86-.38.98.02,1.89-.5,2.37-1.36,2.39,2.29,4.01.8,5.86.65,3.95-.27,5.97-5.94,3.97-9.84,2.76-2.97,3.81-8.13,1.03-11.08h0ZM254.93,146.7c-.25.31-.69.35-1,.11,0,0,0,0,0,0-.3-.25-.36-.7-.12-1.01,1.11-1.45,1.09-3.48-.05-4.91-.26-.4-.26-.91,0-1.31,1.27-2.27.63-5.13-1.49-6.63-.44-.35-.58-.95-.35-1.46,1.5-2.53.84-5.79-1.54-7.53-.35-.19-.48-.63-.28-.98s.63-.48.98-.28c3.72,1.43,4.8,5.13,3.38,8.96,2.42,2.19,3.06,5.74,1.56,8.63,1.01,2.15.58,4.71-1.07,6.42h0Z"/>
  <path class="cls-1" d="M378.81,142.15l-45.75.4c8-3.09,10.4-9.69,2.9-15.83-5.26-4.08-11.81-6.15-18.46-5.82-.02-.91-.08-1.8-.16-2.69,4.81-.69,9.37-2.58,13.26-5.5,6.8-5.42,12.32-16.35,12.54-26.73.04-1.04-.02-2.08-.18-3.11-.06-.39-.44-.66-.83-.6-.39.06-.66.42-.6.81.1.94.1,1.88,0,2.82-.75,8.69-5.8,19.69-12.44,24.92-2.53,1.89-5.37,3.31-8.39,4.2-4.68,1.21-9.56,1.47-14.34.74-1.52-.15-5.92-.63-7.17-.87-.35-.94-2.57-7.1-3.34-9.29,3.29-.73,6.47-1.93,9.42-3.56,5.84-2.66,11.46-5.75,16.84-9.25.33-.21.46-.63.31-.99-.2-.35-.65-.47-1-.28-.93.42-1.84.83-2.75,1.27-.06-3.15.12-6.3.54-9.43,2.4-.26,12.34-1.45,14.93-1.71,11.03-1.08,10.68-.35,11.37-1.26.18-.34.21-.73.09-1.09-4.09-11.2-12.85-20.07-24-24.3-2.26-.88-4.61-1.51-7-1.9-.12-.25-.32-.45-.58-.56-1.39-.69-2.82-1.3-4.28-1.83-.42-.14-.87-.04-1.2.25-4.68,4.05-9.56,7.86-14.64,11.4-1.43-3.05-2.54-6.25-3.31-9.53-.14-.61-.74-1-1.36-.89-2.47.4-4.89,1.05-7.21,1.96-3.4.93-6.6,2.49-9.42,4.62-6.95,5.47-11.33,14.77-13.22,23.38-.14.62.24,1.24.86,1.38,2.91.63,5.86,1.01,8.83,1.14-.45,3.8-.73,6.4-1.12,12.28l-8.26.09c.02-.21.73-4.95.93-5.9.66-3,1.8-5.91.86-6.37-1.44-.69-2.99,3.98-3.2,5.91-.44,2.1-.47,4.26-.1,6.38-3.02.03-11.06.12-14-.13-.53-.03-.98.37-1,.9,0,.16.02.32.09.47,1.45,2.8,5.63,10.91,6.28,12.11.21.34.66.45,1,.24.32-.19.44-.6.28-.94-1.47-2.72-3.23-6.78-5.17-10.77,10.52.67,36.9.09,45.33.38,1.74,4.88,6.88,19.13,7.88,21.8-12.75-.29-17.06-1.08-21.97-1.28-3.35-.15-7.04.82-10.23.36-.64-.09-1.23.36-1.32,1-.04.27.02.55.17.78,1.12,1.72,1.83,3.66,2.09,5.69.17,3.28-1.71,3.26-1.09,4.59,1.51,3.07,2.64,6.5.28,8.94-.9.9.25,2.04-.2,5.05-.4,2.5-1.56,2.26-1.89,5.33-.16,1.39.06,3.34-.08,4.39-.12.63-.25,1.23-.34,1.85-.1.67.35,1.29,1.02,1.39.58.09,1.14-.24,1.34-.79.87-2.49-1.28,1.72,4.99-17.57,4.4,1.88,9.19,1.54,16.28,1.88-.41,12.44,1.01,24.87,4.2,36.91.05.2.16.38.31.53-1.65,1.06-3.4,1.97-5.21,2.72-2.18.95-4.44,1.71-6.74,2.29-4.16-1.23-8.56-1.36-12.78-.39-.31-8.05-2-14.6-7.96-20.57-.27-.29-.72-.31-1.01-.04s-.31.72-.04,1.01c2.18,2.57,3.86,5.53,4.94,8.73,3.06,9.1,3.4,31.16-8.6,37.74-6.77,2.8-14.39,2.67-21.07-.34-2.76-1.45-5.61-2.72-8.54-3.8-1.66-.54-3.4-.95-5.05-1.55-.37-.16-.79,0-.95.38s0,.79.38.95c.02,0,.05.02.07.03,1.66.66,3.36,1.17,5.02,1.8,6.31,2.24,9.08,6.2,19.15,6.85,1.37.1,2.75.1,4.12,0-2.1,6.11-5.49,11.69-9.96,16.36-11.49-5.06-30.4-.6-38.8,5.34-19.4-7.82-24.29-21.14-41.34-8.31-.3.25-.34.7-.09,1,.23.28.64.34.94.14,4-2.89,8.8-5,13.67-4.08,4.48.86,8.57,3.87,13.3,6.88-3.39,1.43-6.68,3.07-9.86,4.92-9.74,5.9-18.84,12.79-27.18,20.55-1.8,1.58-8.44,7.08-10.96,9.21-2.9-2.28-5.54-4.5-8.22-7.03,12.13-12.32,6.59-6.61,12.76-13.23,11.99-12.8,13.06-14.85,14.31-16.48.24-.31.19-.76-.12-1.01-.29-.23-.7-.2-.96.07-.97,1-2.08,1.94-3.08,2.94-4.04,4.14-15.54,16.6-24,26.69-6.12-5.76-6.93-7-9.38-7.55-1.43-.55-3.04,0-3.83,1.31-.34,1.19-.19,2.48.43,3.56,1.05,2.11,2.42,4.03,4.08,5.71,2.66,3.04,8.99,10.38,13.05,10.14,2.28-.49,4.29-1.82,5.63-3.72.23-.23,16.34-12.78,16.55-12.94-.04.32-.09.65-.13.97-1.48,9.62,6.83,15.03,16.53,16.1,33.75,3.57,68.54-1.34,111.84-4.48,10.17-.7,16.49-14.71,19.58-24.42,5.75-17.93,7-39.94-7.31-52.27-2.27-1.95-2.62-1.54-1.57-1.69,2.89-.36,5.71-1.14,8.37-2.29,2.69-1.51,3.03-4.43,2.77-7.48,1.58-.86-.64-.86-.88-37.52,31.61,1.09-4.35.72,50.74,1.27-.11,3.22-.02,77.58-.02,82.63.01.41.35.73.76.72.38-.01.69-.31.72-.69.08-2.72.58-16.27.66-20.85.11-5.92,0-45.91-.12-50.05-.07-1.84-.4-8.83-.53-11.74l21.15.2c0,4.08.42,95.6.46,104.84-8.76-.55-11.27-.24-64.13.03-.4-.02-.74.29-.76.69-.02.4.29.74.69.76.03,0,.05,0,.08,0,13.97.2,46.7.42,64.85,0,.4,0,.97-.32.97-.72v-106.8c-.01-.66-.32-1.2-.98-1.2h0ZM296.86,63.32c.2-.14,10.05-7.69,12.77-10.08,1.23.47,2.22.93,2.48,1.05-1.37,4.47-3.04,10.69-7.23,13.57-1.11.87-2.58,1.13-3.92.71-1.54-.45-3.03-1.05-4.45-1.79-.73-.44-1.44-.92-2.11-1.45,0-.9-1.16.45,2.46-2.01h0ZM287.7,54.61l.89-.15c.87,3.49,2.11,6.88,3.71,10.11.12.23.31.41.54.52l-3.2,2.25c-1.24.9-2.72,1.41-4.25,1.48-2.62-.17-1.4-5.04-.54-7.53.8-2.28,1.89-4.48,2.85-6.68ZM293.03,97.51c-.18-.45-.6-.76-1.08-.8-4.06-.2-13.18-.14-22.47-.03.77-6.91,1.97-13.76,3.62-20.51.27-2.37.28-2.73-.32-2.91-.67-.2-.89.43-1.35,1.42-.19.46-.42.92-.57,1.42-.66,2-1.15,4.05-1.47,6.14-2.18-.27-5.25-.51-7.44-.98.93-3.81,2.35-7.49,4.22-10.94,5.34-9.81,10.3-12.06,19.03-15.72-1.85,3.58-3.01,7.48-3.41,11.49,0,5.4,4.56,5.67,8.77,2.57l1.62-1.25c-.68,3.8-1.14,7.64-1.36,11.49,0,1.15.05,2.29.12,3.45,0,.4.32.72.72.72.37,0,.68-.28.71-.64.18-1.08.38-2.12.58-3.2.19-1.24,1.39-9.92,1.39-11.57-.06-.82-.3-.57,1.27.5,1.5.94,3.1,1.71,4.77,2.31,5.28,1.61,9.16-3.14,11.45-8.06,1.05-2.55,1.94-5.16,2.66-7.83.78.17,1.55.4,2.3.67,11.62,4.23,20.68,11.25,25.92,23.36-7.85.51-15.67,1.43-23.42,2.76.77-4.96-1.02-4.71-1.37-3.58-.52,2.94-.82,5.91-.89,8.89-.03,1.97.1,4.78.12,6.84-.89.42-19.97,9.74-21.84,10.6-.74-2.14-1.5-4.32-2.28-6.59h0ZM274.7,128.69c.25-.28.49-.6.85-.48s.42.48.49.88c.12.67.11,1.08-.65,2.37-.54.93-1.36.58-1.4-.34-.18-.88.09-1.79.71-2.43h0ZM288.03,140.28c-5.08-.14-11.43.56-15.95-1.15.48-1.5.94-3,1.36-4.5,1.45.28,2.92.41,4.39.38,3.59.4,7.2.48,10.8.25-.25,1.58-.45,3.26-.6,5.02h0ZM291.71,127.88c-.93,1.63-1.81,4.4-2.86,4.11-.78-.2-.58-1.9-.41-2.51.6-2.12,1.76-4.03,3.35-5.55.52-.52,2.88-2.06,3.4-1.11.41.76-.42.86-1.96,2.91-.56.67-1.07,1.39-1.51,2.15h0ZM294.11,193.73c13.44,11.62,11.98,32.92,6.48,49.88-2.67,8.45-8.58,22.14-17.45,22.76-40.28,2.8-77.75,8.07-111.41,4.46-8.14-.85-15.72-5.13-14.45-13.34.06-1.27.33-2.51.81-3.68,8.99-7.52,18.87-13.91,29.42-19.03,2.93,2.1,6.2,3.68,9.67,4.66-1.19,1.16-3.42,3.56-2.6,4.38.49.41,1,.23,2.31-.88,2.82-2.4,5.48-6.95,16.07-9.33,4.83-1.02,9.79-1.34,14.71-.94,8.05.55,9.2.64,13.02,3.49,4.17,3.28,4.4,3.67,5.05,3.12.79-.88-1.84-3.49-2.62-4.23-.88-.79-1.85-1.48-2.88-2.06,2.2-2.4,4-5.14,5.34-8.1,1.86-2.91,3.33-6.06,4.37-9.35,13.4-1.96,17.83-15.34,17.77-28.92,4.97-1.17,10.17-.75,14.89,1.2,4.16,1.27,8.07,3.27,11.52,5.92h-.01ZM301.39,186.27c-3.74,1.22-7.63,1.94-11.55,2.16-1.74-.83-3.52-1.56-5.34-2.2,3.56-1.19,6.81-3.14,9.53-5.72.6-.47-1.43-.29,9.6.2,0,2.34-.23,4.49-2.23,5.56h-.01ZM314.09,141.01l-9.85-.28v-5.28c2.86-1.39,5.45-3.57,8.39-4.76,3.25-1.34,4.69-.72,8.43.32,2.89.88,3.37,1.02,3.66.45.37-.66-.33-1.15-1.42-1.88-1.81-1.03-3.82-1.68-5.89-1.92.01-1.46.06-2.92.07-4.39,6.09-.3,12.09,1.59,16.91,5.32,3.91,3.17,4.4,6,2.77,8.25-2.41,2.64-5.73,4.27-9.3,4.57-4.27.65-9.33-.26-13.77-.41h-.01Z"/>
</svg>